{
	"asset":{
		"generator":"Khronos glTF Blender I/O v3.6.27",
		"version":"2.0"
	},
	"scene":0,
	"scenes":[
		{
			"name":"Scene",
			"nodes":[
				46
			]
		}
	],
	"nodes":[
		{
			"mesh":0,
			"name":"Cubo.001"
		},
		{
			"name":"Indice.L.001",
			"rotation":[
				0.026129886507987976,
				-0.0013635738287121058,
				0.04041772708296776,
				0.9988402128219604
			],
			"scale":[
				0.9999998211860657,
				1,
				0.9999999403953552
			],
			"translation":[
				-2.9616057872772217e-07,
				0.0999225527048111,
				-1.2665987014770508e-07
			]
		},
		{
			"children":[
				1
			],
			"name":"Indice.L.002",
			"rotation":[
				0.05157635360956192,
				0.0010968995047733188,
				-0.004636140540242195,
				0.9986577033996582
			],
			"scale":[
				1,
				1,
				0.9999999403953552
			],
			"translation":[
				3.259629011154175e-08,
				0.12325319647789001,
				-3.725290298461914e-09
			]
		},
		{
			"children":[
				2
			],
			"name":"Indice.L",
			"rotation":[
				-0.0027316673658788204,
				0.03687608987092972,
				-0.008221546187996864,
				0.9992823004722595
			],
			"scale":[
				1,
				0.9999999403953552,
				1
			],
			"translation":[
				-0.1592443883419037,
				0.47824645042419434,
				-0.006019311025738716
			]
		},
		{
			"name":"Indice.L.005",
			"rotation":[
				0.04529473930597305,
				-0.0009104773635044694,
				0.0034469591919332743,
				0.9989673495292664
			],
			"scale":[
				0.9999998807907104,
				0.9999999403953552,
				0.9999999403953552
			],
			"translation":[
				3.0547380447387695e-07,
				0.11577562987804413,
				-1.043081283569336e-07
			]
		},
		{
			"children":[
				4
			],
			"name":"Indice.L.004",
			"rotation":[
				0.051378265023231506,
				0.000568172603379935,
				-0.0016793928807601333,
				0.9986777305603027
			],
			"translation":[
				5.21540641784668e-08,
				0.13048630952835083,
				8.940696716308594e-08
			]
		},
		{
			"children":[
				5
			],
			"name":"Indice.L.003",
			"rotation":[
				-0.011874591000378132,
				0.03614306077361107,
				0.0036827228032052517,
				0.9992693066596985
			],
			"translation":[
				-0.05281118303537369,
				0.4860813021659851,
				-0.0009948424994945526
			]
		},
		{
			"name":"Indice.L.008",
			"rotation":[
				0.03508809208869934,
				-0.0009245975525118411,
				0.002508096396923065,
				0.9993806481361389
			],
			"scale":[
				0.9999999403953552,
				1,
				0.9999998807907104
			],
			"translation":[
				1.0058283805847168e-07,
				0.10728457570075989,
				1.4901161193847656e-08
			]
		},
		{
			"children":[
				7
			],
			"name":"Indice.L.007",
			"rotation":[
				0.05641762167215347,
				0.0005678851157426834,
				-0.0015224459348246455,
				0.998405933380127
			],
			"scale":[
				1,
				0.9999999403953552,
				1
			],
			"translation":[
				3.5762786865234375e-07,
				0.1144595816731453,
				8.940696716308594e-08
			]
		},
		{
			"children":[
				8
			],
			"name":"Indice.L.006",
			"rotation":[
				-0.0176631398499012,
				0.03612183779478073,
				0.00392893934622407,
				0.9991835951805115
			],
			"scale":[
				0.9999999403953552,
				0.9999999403953552,
				1
			],
			"translation":[
				0.052528053522109985,
				0.48334813117980957,
				0.004018746316432953
			]
		},
		{
			"name":"Indice.L.011",
			"rotation":[
				0.07587764412164688,
				-0.0007112636230885983,
				-0.003077120753005147,
				0.9971121549606323
			],
			"scale":[
				1,
				1.0000001192092896,
				1
			],
			"translation":[
				-1.9371509552001953e-07,
				0.11428814381361008,
				1.6391277313232422e-07
			]
		},
		{
			"children":[
				10
			],
			"name":"Indice.L.010",
			"rotation":[
				0.05380089208483696,
				0.0031393677927553654,
				0.05195833370089531,
				0.9971940517425537
			],
			"translation":[
				-3.725290298461914e-07,
				0.10475726425647736,
				1.4901161193847656e-08
			]
		},
		{
			"children":[
				11
			],
			"name":"Indice.L.009",
			"rotation":[
				-0.03297751024365425,
				0.03467646986246109,
				-0.048716943711042404,
				0.9976655840873718
			],
			"scale":[
				1,
				0.9999999403953552,
				1.0000001192092896
			],
			"translation":[
				0.15267735719680786,
				0.4608595669269562,
				0.012056797742843628
			]
		},
		{
			"name":"Indice.L.014",
			"rotation":[
				0.03685638681054115,
				-0.03665803745388985,
				0.054735857993364334,
				0.9971468448638916
			],
			"scale":[
				0.9999999403953552,
				1,
				0.9999998807907104
			],
			"translation":[
				-5.494803190231323e-08,
				0.13991425931453705,
				1.94646418094635e-07
			]
		},
		{
			"children":[
				13
			],
			"name":"Indice.L.013",
			"rotation":[
				-0.003704340197145939,
				-0.09202621877193451,
				-0.23408055305480957,
				0.9678449034690857
			],
			"scale":[
				0.9999999403953552,
				0.9999998807907104,
				1
			],
			"translation":[
				7.660128176212311e-08,
				0.12832672894001007,
				-9.569339454174042e-08
			]
		},
		{
			"children":[
				14
			],
			"name":"Indice.L.012",
			"rotation":[
				0.4418998956680298,
				0.111859031021595,
				0.5047589540481567,
				0.7330965399742126
			],
			"translation":[
				-0.16608741879463196,
				0.2592639625072479,
				-0.009034629911184311
			]
		},
		{
			"children":[
				3,
				6,
				9,
				12,
				15
			],
			"name":"Bone.006.L",
			"rotation":[
				0.06321484595537186,
				-0.00870673730969429,
				0.003962061833590269,
				0.9979541301727295
			],
			"scale":[
				0.9999999403953552,
				1.0000001192092896,
				1
			],
			"translation":[
				-1.0244548320770264e-07,
				0.958526611328125,
				3.3527612686157227e-08
			]
		},
		{
			"children":[
				16
			],
			"name":"Bone.005.L",
			"rotation":[
				0.13181862235069275,
				0.007783460896462202,
				-0.03246399015188217,
				0.9907115697860718
			],
			"scale":[
				0.9999999403953552,
				1,
				1.0000001192092896
			],
			"translation":[
				1.1920928955078125e-07,
				0.8304464817047119,
				-2.2351741790771484e-08
			]
		},
		{
			"children":[
				17
			],
			"name":"Bone.004.L",
			"rotation":[
				-0.02542981132864952,
				0.003287264611572027,
				-0.1327774077653885,
				0.9908141493797302
			],
			"scale":[
				1,
				1,
				0.9999999403953552
			],
			"translation":[
				-8.940696716308594e-08,
				1.069294810295105,
				0
			]
		},
		{
			"children":[
				18
			],
			"name":"Bone.003.L",
			"rotation":[
				-0.07261049747467041,
				0.03774401172995567,
				-0.8332924246788025,
				0.5467420816421509
			],
			"scale":[
				1.0000001192092896,
				1,
				1
			],
			"translation":[
				6.886539782868795e-09,
				0.9783785343170166,
				1.1175872671742582e-08
			]
		},
		{
			"name":"Bone.008",
			"rotation":[
				-0.11554278433322906,
				4.269647786367403e-14,
				-2.754755001888043e-08,
				0.9933025240898132
			],
			"translation":[
				-9.13000550812823e-15,
				0.3762507140636444,
				8.940696716308594e-08
			]
		},
		{
			"children":[
				20
			],
			"name":"Bone.007",
			"rotation":[
				0.2971448600292206,
				-6.697389225238798e-14,
				7.084484821007209e-08,
				0.9548324346542358
			],
			"scale":[
				1,
				1,
				0.9999999403953552
			],
			"translation":[
				-1.1186238973960247e-15,
				0.9783785343170166,
				1.1175870895385742e-08
			]
		},
		{
			"name":"Indice.R.001",
			"rotation":[
				0.026129743084311485,
				0.0013637676602229476,
				-0.040417544543743134,
				0.9988402128219604
			],
			"scale":[
				0.9999999403953552,
				0.9999998807907104,
				0.9999998807907104
			],
			"translation":[
				2.7567148208618164e-07,
				0.09992258250713348,
				1.4156103134155273e-07
			]
		},
		{
			"children":[
				22
			],
			"name":"Indice.R.002",
			"rotation":[
				0.0515766479074955,
				-0.0010968195274472237,
				0.004636031109839678,
				0.9986576437950134
			],
			"scale":[
				1.0000001192092896,
				1,
				1
			],
			"translation":[
				1.0803341865539551e-07,
				0.1232534795999527,
				1.1175870895385742e-07
			]
		},
		{
			"children":[
				23
			],
			"name":"Indice.R",
			"rotation":[
				-0.002731716027483344,
				-0.036875952035188675,
				0.008221532218158245,
				0.9992823004722595
			],
			"scale":[
				1,
				0.9999998211860657,
				1
			],
			"translation":[
				0.15924476087093353,
				0.4782467484474182,
				-0.0060194022953510284
			]
		},
		{
			"name":"Indice.R.005",
			"rotation":[
				0.045294713228940964,
				0.0009104699129238725,
				-0.003447048831731081,
				0.9989673495292664
			],
			"scale":[
				0.9999998807907104,
				0.9999999403953552,
				0.9999999403953552
			],
			"translation":[
				-1.043081283569336e-07,
				0.11577558517456055,
				1.043081283569336e-07
			]
		},
		{
			"children":[
				25
			],
			"name":"Indice.R.004",
			"rotation":[
				0.05137833580374718,
				-0.000568262068554759,
				0.0016789525980129838,
				0.998677670955658
			],
			"scale":[
				1.0000001192092896,
				1,
				1.0000001192092896
			],
			"translation":[
				-4.3213367462158203e-07,
				0.1304864138364792,
				-1.043081283569336e-07
			]
		},
		{
			"children":[
				26
			],
			"name":"Indice.R.003",
			"rotation":[
				-0.011874821037054062,
				-0.03614285960793495,
				-0.0036821861285716295,
				0.9992693066596985
			],
			"scale":[
				1,
				0.9999999403953552,
				1
			],
			"translation":[
				0.05281136929988861,
				0.48608094453811646,
				-0.000994749367237091
			]
		},
		{
			"name":"Indice.R.008",
			"rotation":[
				0.03508816659450531,
				0.0009245192050002515,
				-0.002508094534277916,
				0.9993806481361389
			],
			"scale":[
				1,
				1.0000001192092896,
				0.9999998807907104
			],
			"translation":[
				-2.086162567138672e-07,
				0.10728447884321213,
				1.341104507446289e-07
			]
		},
		{
			"children":[
				28
			],
			"name":"Indice.R.007",
			"rotation":[
				0.05641740933060646,
				-0.0005679914611391723,
				0.001522414037026465,
				0.9984059929847717
			],
			"scale":[
				1.0000001192092896,
				1,
				1
			],
			"translation":[
				-4.6566128730773926e-08,
				0.11445923149585724,
				7.450580596923828e-09
			]
		},
		{
			"children":[
				29
			],
			"name":"Indice.R.006",
			"rotation":[
				-0.017663078382611275,
				-0.03612164035439491,
				-0.003928870428353548,
				0.9991835355758667
			],
			"scale":[
				1,
				1,
				1.0000001192092896
			],
			"translation":[
				-0.05252806842327118,
				0.48334801197052,
				0.004018701612949371
			]
		},
		{
			"name":"Indice.R.011",
			"rotation":[
				0.07587774097919464,
				0.0007111720624379814,
				0.0030771284364163876,
				0.9971121549606323
			],
			"translation":[
				-7.450580596923828e-08,
				0.11428826302289963,
				-2.384185791015625e-07
			]
		},
		{
			"children":[
				31
			],
			"name":"Indice.R.010",
			"rotation":[
				0.05380096286535263,
				-0.0031394974794238806,
				-0.0519583635032177,
				0.9971940517425537
			],
			"scale":[
				1,
				0.9999999403953552,
				1
			],
			"translation":[
				-4.284083843231201e-08,
				0.10475733876228333,
				-2.9802322387695312e-08
			]
		},
		{
			"children":[
				32
			],
			"name":"Indice.R.009",
			"rotation":[
				-0.03297770395874977,
				-0.034676045179367065,
				0.04871702566742897,
				0.9976655840873718
			],
			"scale":[
				1,
				0.9999998807907104,
				1
			],
			"translation":[
				-0.15267682075500488,
				0.46085965633392334,
				0.012056931853294373
			]
		},
		{
			"name":"Indice.R.014",
			"rotation":[
				0.036856357008218765,
				0.03665833920240402,
				-0.054735828191041946,
				0.9971468448638916
			],
			"scale":[
				1,
				1,
				1.0000001192092896
			],
			"translation":[
				-1.30385160446167e-07,
				0.13991457223892212,
				-1.1175870895385742e-08
			]
		},
		{
			"children":[
				34
			],
			"name":"Indice.R.013",
			"rotation":[
				-0.003704419592395425,
				0.09202581644058228,
				0.23408032953739166,
				0.9678450226783752
			],
			"scale":[
				1,
				0.9999999403953552,
				0.9999999403953552
			],
			"translation":[
				9.592622518539429e-08,
				0.12832659482955933,
				3.1990930438041687e-07
			]
		},
		{
			"children":[
				35
			],
			"name":"Indice.R.012",
			"rotation":[
				0.44189995527267456,
				-0.11185899376869202,
				-0.5047588348388672,
				0.7330965995788574
			],
			"scale":[
				0.9999999403953552,
				1,
				0.9999999403953552
			],
			"translation":[
				0.16608849167823792,
				0.25926461815834045,
				-0.009034726768732071
			]
		},
		{
			"children":[
				24,
				27,
				30,
				33,
				36
			],
			"name":"Bone.006.R",
			"rotation":[
				0.06321488320827484,
				0.008706538006663322,
				-0.003962039481848478,
				0.9979541301727295
			],
			"scale":[
				0.9999999403953552,
				1,
				1
			],
			"translation":[
				-9.872019290924072e-08,
				0.9585265517234802,
				1.862645149230957e-08
			]
		},
		{
			"children":[
				37
			],
			"name":"Bone.005.R",
			"rotation":[
				0.13181859254837036,
				-0.007783498149365187,
				0.032464008778333664,
				0.9907115697860718
			],
			"translation":[
				7.450580596923828e-09,
				0.8304468393325806,
				-5.21540641784668e-08
			]
		},
		{
			"children":[
				38
			],
			"name":"Bone.004.R",
			"rotation":[
				-0.0254298597574234,
				-0.0032870799768716097,
				0.13277746737003326,
				0.9908141493797302
			],
			"translation":[
				-1.4901161193847656e-08,
				1.0692951679229736,
				-6.705522537231445e-08
			]
		},
		{
			"children":[
				39
			],
			"name":"Bone.003.R",
			"rotation":[
				-0.07261066883802414,
				-0.03774410858750343,
				0.8332923054695129,
				0.5467422008514404
			],
			"scale":[
				0.9999998807907104,
				0.9999998807907104,
				0.9999998807907104
			],
			"translation":[
				-1.8947442725902874e-08,
				0.9783785343170166,
				1.1175866454493644e-08
			]
		},
		{
			"name":"Costilla.L",
			"rotation":[
				0.5656940340995789,
				-0.4288618266582489,
				-0.5407192707061768,
				0.45132073760032654
			],
			"scale":[
				1.0000001192092896,
				0.9999998807907104,
				0.9999999403953552
			],
			"translation":[
				0.6334860324859619,
				0.09974636137485504,
				-0.36702173948287964
			]
		},
		{
			"name":"Costilla.R",
			"rotation":[
				0.5656964182853699,
				0.4288593530654907,
				0.540716826915741,
				0.45132318139076233
			],
			"scale":[
				1,
				1.0000001192092896,
				1.0000001192092896
			],
			"translation":[
				-0.6334853768348694,
				0.09974637627601624,
				-0.3670220971107483
			]
		},
		{
			"children":[
				19,
				21,
				40,
				41,
				42
			],
			"name":"Bone.002",
			"rotation":[
				-0.09096299856901169,
				-1.427001319030414e-14,
				-2.1687274198711748e-08,
				0.9958543181419373
			],
			"scale":[
				1,
				0.9999999403953552,
				0.9999999403953552
			],
			"translation":[
				0,
				0.8318902254104614,
				0
			]
		},
		{
			"children":[
				43
			],
			"name":"Bone.001",
			"rotation":[
				-0.15967203676700592,
				1.1767986762833971e-07,
				-1.9034390064121e-08,
				0.9871701598167419
			],
			"scale":[
				1,
				0.9999999403953552,
				0.9999999403953552
			],
			"translation":[
				0,
				0.9662477374076843,
				-3.3527612686157227e-08
			]
		},
		{
			"children":[
				44
			],
			"name":"Bone",
			"rotation":[
				0.12737813591957092,
				0,
				0,
				0.9918542504310608
			],
			"scale":[
				1,
				0.9999999403953552,
				0.9999999403953552
			],
			"translation":[
				0,
				-1.238020658493042,
				-0.26042941212654114
			]
		},
		{
			"children":[
				0,
				45
			],
			"name":"Esqueleto"
		}
	],
	"meshes":[
		{
			"name":"Cubo.001",
			"primitives":[
				{
					"attributes":{
						"POSITION":0,
						"NORMAL":1,
						"TEXCOORD_0":2
					},
					"indices":3
				}
			]
		}
	],
	"skins":[
		{
			"inverseBindMatrices":4,
			"joints":[
				45,
				44,
				43,
				19,
				18,
				17,
				16,
				3,
				2,
				1,
				6,
				5,
				4,
				9,
				8,
				7,
				12,
				11,
				10,
				15,
				14,
				13,
				21,
				20,
				40,
				39,
				38,
				37,
				24,
				23,
				22,
				27,
				26,
				25,
				30,
				29,
				28,
				33,
				32,
				31,
				36,
				35,
				34,
				41,
				42
			],
			"name":"Esqueleto"
		}
	],
	"accessors":[
		{
			"bufferView":0,
			"componentType":5126,
			"count":2734,
			"max":[
				1.224644660949707,
				2.5703225135803223,
				1.5258865356445312
			],
			"min":[
				-1.224644660949707,
				-1.379215121269226,
				-0.8154910802841187
			],
			"type":"VEC3"
		},
		{
			"bufferView":1,
			"componentType":5126,
			"count":2734,
			"type":"VEC3"
		},
		{
			"bufferView":2,
			"componentType":5126,
			"count":2734,
			"type":"VEC2"
		},
		{
			"bufferView":3,
			"componentType":5123,
			"count":4104,
			"type":"SCALAR"
		},
		{
			"bufferView":4,
			"componentType":5126,
			"count":45,
			"type":"MAT4"
		}
	],
	"bufferViews":[
		{
			"buffer":0,
			"byteLength":32808,
			"byteOffset":0,
			"target":34962
		},
		{
			"buffer":0,
			"byteLength":32808,
			"byteOffset":32808,
			"target":34962
		},
		{
			"buffer":0,
			"byteLength":21872,
			"byteOffset":65616,
			"target":34962
		},
		{
			"buffer":0,
			"byteLength":8208,
			"byteOffset":87488,
			"target":34963
		},
		{
			"buffer":0,
			"byteLength":2880,
			"byteOffset":95696
		}
	],
	"buffers":[
		{
			"byteLength":98576,
			"uri":"data:application/octet-stream;base64,"
		}
	]
}
