{"scene":0,"asset":{"generator":"ImageToStl.com","version":"2.0"},"scenes":[{"name":"Scene","nodes":[0]}],"nodes":[{"name":"Node0","children":[1,2,3,4,5,6]},{"name":"Node1","mesh":0},{"name":"Node2","mesh":1},{"name":"Node3","mesh":2},{"name":"Node4","mesh":3},{"name":"Node5","mesh":4},{"name":"Node6","mesh":5}],"materials":[{"name":"Material","pbrMetallicRoughness":{"baseColorFactor":[0.8,0.8,0.8,1.0],"metallicFactor":0.5,"roughnessFactor":0.75},"emissiveFactor":[0.0,0.0,0.0],"doubleSided":true},{"name":"x1","pbrMetallicRoughness":{"baseColorFactor":[0.0,0.0,0.0,1.0],"metallicFactor":0.0,"roughnessFactor":1.0},"doubleSided":true}],"meshes":[{"name":"Mesh0","primitives":[{"indices":3,"material":0,"attributes":{"POSITION":0,"NORMAL":1,"TEXCOORD_0":2}}]},{"name":"Mesh0","primitives":[{"indices":7,"material":1,"attributes":{"POSITION":4,"NORMAL":5,"TEXCOORD_0":6}}]},{"name":"Mesh0","primitives":[{"indices":11,"material":1,"attributes":{"POSITION":8,"NORMAL":9,"TEXCOORD_0":10}}]},{"name":"Mesh0","primitives":[{"indices":15,"material":1,"attributes":{"POSITION":12,"NORMAL":13,"TEXCOORD_0":14}}]},{"name":"Mesh0","primitives":[{"indices":19,"material":1,"attributes":{"POSITION":16,"NORMAL":17,"TEXCOORD_0":18}}]},{"name":"Mesh0","primitives":[{"indices":23,"material":1,"attributes":{"POSITION":20,"NORMAL":21,"TEXCOORD_0":22}}]}],"accessors":[{"bufferView":0,"componentType":5126,"count":1239,"type":"VEC3","min":[-0.89148057,-1.6841583,0.19982424],"max":[0.89148057,1.6541568,1.29]},{"bufferView":1,"componentType":5126,"count":1239,"type":"VEC3"},{"bufferView":2,"componentType":5126,"count":1239,"type":"VEC2"},{"bufferView":3,"componentType":5123,"count":23040,"type":"SCALAR"},{"bufferView":4,"componentType":5126,"count":886,"type":"VEC3","min":[0.48929763,-1.3572078,-0.008547723],"max":[0.6828766,-0.6893174,0.6593427]},{"bufferView":5,"componentType":5126,"count":886,"type":"VEC3"},{"bufferView":6,"componentType":5126,"count":886,"type":"VEC2"},{"bufferView":7,"componentType":5123,"count":11196,"type":"SCALAR"},{"bufferView":8,"componentType":5126,"count":886,"type":"VEC3","min":[0.48929763,0.7860548,-0.008547723],"max":[0.6828766,1.4539452,0.6593427]},{"bufferView":9,"componentType":5126,"count":886,"type":"VEC3"},{"bufferView":10,"componentType":5126,"count":886,"type":"VEC2"},{"bufferView":11,"componentType":5123,"count":11196,"type":"SCALAR"},{"bufferView":12,"componentType":5126,"count":886,"type":"VEC3","min":[0.48929763,-1.3572078,-0.008547723],"max":[0.6828766,-0.6893174,0.6593427]},{"bufferView":13,"componentType":5126,"count":886,"type":"VEC3"},{"bufferView":14,"componentType":5126,"count":886,"type":"VEC2"},{"bufferView":15,"componentType":5123,"count":11196,"type":"SCALAR"},{"bufferView":16,"componentType":5126,"count":886,"type":"VEC3","min":[-0.68287647,0.7860548,-0.008547723],"max":[-0.48929748,1.4539452,0.6593427]},{"bufferView":17,"componentType":5126,"count":886,"type":"VEC3"},{"bufferView":18,"componentType":5126,"count":886,"type":"VEC2"},{"bufferView":19,"componentType":5123,"count":11196,"type":"SCALAR"},{"bufferView":20,"componentType":5126,"count":886,"type":"VEC3","min":[-0.68287647,-1.3572078,-0.008547723],"max":[-0.48929748,-0.6893174,0.6593427]},{"bufferView":21,"componentType":5126,"count":886,"type":"VEC3"},{"bufferView":22,"componentType":5126,"count":886,"type":"VEC2"},{"bufferView":23,"componentType":5123,"count":11196,"type":"SCALAR"}],"bufferViews":[{"target":34962,"buffer":0,"byteLength":14868,"byteOffset":0},{"target":34962,"buffer":0,"byteLength":14868,"byteOffset":14868},{"target":34962,"buffer":0,"byteLength":9912,"byteOffset":29736},{"target":34963,"buffer":0,"byteLength":46080,"byteOffset":39648},{"target":34962,"buffer":0,"byteLength":10632,"byteOffset":85728},{"target":34962,"buffer":0,"byteLength":10632,"byteOffset":96360},{"target":34962,"buffer":0,"byteLength":7088,"byteOffset":106992},{"target":34963,"buffer":0,"byteLength":22392,"byteOffset":114080},{"target":34962,"buffer":0,"byteLength":10632,"byteOffset":136472},{"target":34962,"buffer":0,"byteLength":10632,"byteOffset":147104},{"target":34962,"buffer":0,"byteLength":7088,"byteOffset":157736},{"target":34963,"buffer":0,"byteLength":22392,"byteOffset":164824},{"target":34962,"buffer":0,"byteLength":10632,"byteOffset":187216},{"target":34962,"buffer":0,"byteLength":10632,"byteOffset":197848},{"target":34962,"buffer":0,"byteLength":7088,"byteOffset":208480},{"target":34963,"buffer":0,"byteLength":22392,"byteOffset":215568},{"target":34962,"buffer":0,"byteLength":10632,"byteOffset":237960},{"target":34962,"buffer":0,"byteLength":10632,"byteOffset":248592},{"target":34962,"buffer":0,"byteLength":7088,"byteOffset":259224},{"target":34963,"buffer":0,"byteLength":22392,"byteOffset":266312},{"target":34962,"buffer":0,"byteLength":10632,"byteOffset":288704},{"target":34962,"buffer":0,"byteLength":10632,"byteOffset":299336},{"target":34962,"buffer":0,"byteLength":7088,"byteOffset":309968},{"target":34963,"buffer":0,"byteLength":22392,"byteOffset":317056}],"buffers":[{"byteLength":339448,"uri":"data:application/octet-stream;base64,"}]}