{
	"asset":{
		"generator":"Khronos glTF Blender I/O v3.6.27",
		"version":"2.0"
	},
	"scene":0,
	"scenes":[
		{
			"name":"Scene",
			"nodes":[
				46
			]
		}
	],
	"nodes":[
		{
			"mesh":0,
			"name":"Cubo.001",
			"translation":[
				0,
				-0.6204879283905029,
				0.203097403049469
			]
		},
		{
			"name":"Indice.L.001",
			"rotation":[
				0.026129936799407005,
				-0.0013636446092277765,
				0.04041775315999985,
				0.9988402128219604
			],
			"scale":[
				0.9999999403953552,
				1.0000001192092896,
				0.9999999403953552
			],
			"translation":[
				-2.4586915969848633e-07,
				0.099922776222229,
				5.21540641784668e-08
			]
		},
		{
			"children":[
				1
			],
			"name":"Indice.L.002",
			"rotation":[
				0.051576338708400726,
				0.0010968752903863788,
				-0.004636108875274658,
				0.9986577033996582
			],
			"scale":[
				1,
				0.9999999403953552,
				0.9999999403953552
			],
			"translation":[
				1.9744038581848145e-07,
				0.12325295805931091,
				1.4901161193847656e-08
			]
		},
		{
			"children":[
				2
			],
			"name":"Indice.L",
			"rotation":[
				-0.0027316713239997625,
				0.03687604144215584,
				-0.008221540600061417,
				0.9992823004722595
			],
			"scale":[
				0.9999998807907104,
				0.9999998211860657,
				0.9999999403953552
			],
			"translation":[
				-0.15924446284770966,
				0.4782463312149048,
				-0.006019352003931999
			]
		},
		{
			"name":"Indice.L.005",
			"rotation":[
				0.04529478773474693,
				-0.0009104811470024288,
				0.0034469689708203077,
				0.9989672899246216
			],
			"scale":[
				0.9999998807907104,
				0.9999999403953552,
				1
			],
			"translation":[
				3.650784492492676e-07,
				0.11577580124139786,
				-7.450580596923828e-08
			]
		},
		{
			"children":[
				4
			],
			"name":"Indice.L.004",
			"rotation":[
				0.05137823149561882,
				0.0005681857001036406,
				-0.0016793536487966776,
				0.998677670955658
			],
			"scale":[
				1.0000001192092896,
				1,
				1
			],
			"translation":[
				1.9744038581848145e-07,
				0.13048651814460754,
				1.564621925354004e-07
			]
		},
		{
			"children":[
				5
			],
			"name":"Indice.L.003",
			"rotation":[
				-0.011874592863023281,
				0.036142949014902115,
				0.0036827288568019867,
				0.9992693066596985
			],
			"scale":[
				0.9999998807907104,
				0.9999998807907104,
				0.9999999403953552
			],
			"translation":[
				-0.052811503410339355,
				0.48608139157295227,
				-0.0009948797523975372
			]
		},
		{
			"name":"Indice.L.008",
			"rotation":[
				0.03508812189102173,
				-0.0009246757836081088,
				0.002508101984858513,
				0.9993806481361389
			],
			"scale":[
				0.9999999403953552,
				1,
				0.9999998807907104
			],
			"translation":[
				7.450580596923828e-09,
				0.10728474706411362,
				-4.470348358154297e-08
			]
		},
		{
			"children":[
				7
			],
			"name":"Indice.L.007",
			"rotation":[
				0.05641758441925049,
				0.0005680921603925526,
				-0.0015223732916638255,
				0.9984059929847717
			],
			"scale":[
				1,
				0.9999998211860657,
				0.9999998807907104
			],
			"translation":[
				8.381903171539307e-08,
				0.11445951461791992,
				1.2665987014770508e-07
			]
		},
		{
			"children":[
				8
			],
			"name":"Indice.L.006",
			"rotation":[
				-0.01766311749815941,
				0.03612169623374939,
				0.003928935155272484,
				0.9991835951805115
			],
			"scale":[
				1,
				0.9999999403953552,
				1
			],
			"translation":[
				0.052527882158756256,
				0.4833482503890991,
				0.004018746316432953
			]
		},
		{
			"name":"Indice.L.011",
			"rotation":[
				0.07587764412164688,
				-0.0007112468010745943,
				-0.003077128669247031,
				0.9971121549606323
			],
			"scale":[
				0.9999998807907104,
				1,
				1
			],
			"translation":[
				-4.842877388000488e-08,
				0.114288330078125,
				1.4901161193847656e-07
			]
		},
		{
			"children":[
				10
			],
			"name":"Indice.L.010",
			"rotation":[
				0.05380086973309517,
				0.0031394909601658583,
				0.05195830762386322,
				0.9971940517425537
			],
			"scale":[
				1,
				1.0000001192092896,
				1
			],
			"translation":[
				-4.842877388000488e-07,
				0.10475774109363556,
				0
			]
		},
		{
			"children":[
				11
			],
			"name":"Indice.L.009",
			"rotation":[
				-0.032977472990751266,
				0.034676212817430496,
				-0.04871689900755882,
				0.9976656436920166
			],
			"scale":[
				0.9999999403953552,
				0.9999998807907104,
				0.9999999403953552
			],
			"translation":[
				0.15267719328403473,
				0.4608597159385681,
				0.012056790292263031
			]
		},
		{
			"name":"Indice.L.014",
			"rotation":[
				0.03685637190937996,
				-0.03665805980563164,
				0.054735857993364334,
				0.9971468448638916
			],
			"translation":[
				-1.5366822481155396e-07,
				0.13991442322731018,
				2.1071173250675201e-07
			]
		},
		{
			"children":[
				13
			],
			"name":"Indice.L.013",
			"rotation":[
				-0.003704382572323084,
				-0.09202629327774048,
				-0.23408061265945435,
				0.9678449034690857
			],
			"scale":[
				1,
				1,
				1.0000001192092896
			],
			"translation":[
				1.885928213596344e-07,
				0.12832675874233246,
				1.5669502317905426e-07
			]
		},
		{
			"children":[
				14
			],
			"name":"Indice.L.012",
			"rotation":[
				0.4418998658657074,
				0.11185897886753082,
				0.5047590732574463,
				0.7330964803695679
			],
			"scale":[
				0.9999999403953552,
				1,
				0.9999999403953552
			],
			"translation":[
				-0.16608762741088867,
				0.25926393270492554,
				-0.009034659713506699
			]
		},
		{
			"children":[
				3,
				6,
				9,
				12,
				15
			],
			"name":"Bone.006.L",
			"rotation":[
				0.06321485340595245,
				-0.008706653490662575,
				0.003962046932429075,
				0.9979541301727295
			],
			"scale":[
				0.9999998807907104,
				1,
				1
			],
			"translation":[
				5.4016709327697754e-08,
				0.958526611328125,
				8.568167686462402e-08
			]
		},
		{
			"children":[
				16
			],
			"name":"Bone.005.L",
			"rotation":[
				0.13181863725185394,
				0.007783475797623396,
				-0.03246397525072098,
				0.9907115697860718
			],
			"scale":[
				0.9999999403953552,
				0.9999999403953552,
				1.0000001192092896
			],
			"translation":[
				1.4901161193847656e-07,
				0.8304466605186462,
				0
			]
		},
		{
			"children":[
				17
			],
			"name":"Bone.004.L",
			"rotation":[
				-0.025429828092455864,
				0.0032872604206204414,
				-0.13277742266654968,
				0.9908141493797302
			],
			"scale":[
				1.0000001192092896,
				1.0000001192092896,
				1
			],
			"translation":[
				1.1920928955078125e-07,
				1.069294810295105,
				-5.21540641784668e-08
			]
		},
		{
			"children":[
				18
			],
			"name":"Bone.003.L",
			"rotation":[
				-0.07261049002408981,
				0.03774402290582657,
				-0.8332924246788025,
				0.5467420816421509
			],
			"scale":[
				1,
				1,
				0.9999999403953552
			],
			"translation":[
				6.886537562422745e-09,
				0.9783784747123718,
				3.725290298461914e-08
			]
		},
		{
			"name":"Bone.008",
			"rotation":[
				-0.1155426949262619,
				4.068460181922383e-14,
				-2.754755179523727e-08,
				0.9933025240898132
			],
			"translation":[
				-1.7763568394002505e-14,
				0.37625062465667725,
				1.1920928955078125e-07
			]
		},
		{
			"children":[
				20
			],
			"name":"Bone.007",
			"rotation":[
				0.2971448302268982,
				-6.139273117655719e-14,
				7.084484821007209e-08,
				0.9548324346542358
			],
			"scale":[
				1,
				0.9999998807907104,
				0.9999999403953552
			],
			"translation":[
				-3.552713678800501e-15,
				0.9783784747123718,
				3.725290298461914e-08
			]
		},
		{
			"name":"Indice.R.001",
			"rotation":[
				0.026129821315407753,
				0.0013637155061587691,
				-0.04041752964258194,
				0.9988402724266052
			],
			"scale":[
				0.9999998807907104,
				0.9999999403953552,
				0.9999999403953552
			],
			"translation":[
				-1.9744038581848145e-07,
				0.09992267191410065,
				1.9371509552001953e-07
			]
		},
		{
			"children":[
				22
			],
			"name":"Indice.R.002",
			"rotation":[
				0.05157656967639923,
				-0.001096901367418468,
				0.004635938908904791,
				0.9986577033996582
			],
			"scale":[
				1,
				1.0000001192092896,
				0.9999999403953552
			],
			"translation":[
				1.9744038581848145e-07,
				0.12325334548950195,
				5.21540641784668e-08
			]
		},
		{
			"children":[
				23
			],
			"name":"Indice.R",
			"rotation":[
				-0.0027317157946527004,
				-0.036875899881124496,
				0.008221601136028767,
				0.9992823004722595
			],
			"scale":[
				0.9999999403953552,
				0.9999999403953552,
				1
			],
			"translation":[
				0.15924453735351562,
				0.4782463610172272,
				-0.006019357591867447
			]
		},
		{
			"name":"Indice.R.005",
			"rotation":[
				0.045294713228940964,
				0.0009104586788453162,
				-0.003446961287409067,
				0.9989673495292664
			],
			"scale":[
				0.9999999403953552,
				0.9999998211860657,
				0.9999998807907104
			],
			"translation":[
				-1.601874828338623e-07,
				0.11577557772397995,
				1.6391277313232422e-07
			]
		},
		{
			"children":[
				25
			],
			"name":"Indice.R.004",
			"rotation":[
				0.05137826129794121,
				-0.0005683218478225172,
				0.0016787737840786576,
				0.9986777305603027
			],
			"scale":[
				0.9999999403953552,
				1,
				1
			],
			"translation":[
				2.9802322387695312e-08,
				0.13048648834228516,
				-8.940696716308594e-08
			]
		},
		{
			"children":[
				26
			],
			"name":"Indice.R.003",
			"rotation":[
				-0.011874807067215443,
				-0.036142781376838684,
				-0.0036821169778704643,
				0.9992693066596985
			],
			"translation":[
				0.05281127244234085,
				0.4860807955265045,
				-0.0009946972131729126
			]
		},
		{
			"name":"Indice.R.008",
			"rotation":[
				0.03508814051747322,
				0.0009245080873370171,
				-0.002508047968149185,
				0.9993806481361389
			],
			"scale":[
				0.9999999403953552,
				1.0000001192092896,
				0.9999999403953552
			],
			"translation":[
				-4.172325134277344e-07,
				0.1072845458984375,
				1.9371509552001953e-07
			]
		},
		{
			"children":[
				28
			],
			"name":"Indice.R.007",
			"rotation":[
				0.05641736462712288,
				-0.0005680007743649185,
				0.0015223562950268388,
				0.998405933380127
			],
			"translation":[
				-3.725290298461914e-08,
				0.1144590824842453,
				5.960464477539063e-08
			]
		},
		{
			"children":[
				29
			],
			"name":"Indice.R.006",
			"rotation":[
				-0.017663056030869484,
				-0.03612161800265312,
				-0.003928835038095713,
				0.9991835355758667
			],
			"scale":[
				1.0000001192092896,
				1,
				1.0000001192092896
			],
			"translation":[
				-0.05252815783023834,
				0.4833478629589081,
				0.004018738865852356
			]
		},
		{
			"name":"Indice.R.011",
			"rotation":[
				0.07587778568267822,
				0.0007111759041436017,
				0.0030771438032388687,
				0.9971121549606323
			],
			"scale":[
				0.9999999403953552,
				0.9999999403953552,
				0.9999999403953552
			],
			"translation":[
				-9.685754776000977e-08,
				0.11428850889205933,
				-2.384185791015625e-07
			]
		},
		{
			"children":[
				31
			],
			"name":"Indice.R.010",
			"rotation":[
				0.05380088463425636,
				-0.003139362670481205,
				-0.05195832625031471,
				0.9971940517425537
			],
			"scale":[
				1,
				0.9999999403953552,
				0.9999999403953552
			],
			"translation":[
				1.1734664440155029e-07,
				0.10475732386112213,
				-1.043081283569336e-07
			]
		},
		{
			"children":[
				32
			],
			"name":"Indice.R.009",
			"rotation":[
				-0.032977670431137085,
				-0.03467615321278572,
				0.04871692135930061,
				0.9976655840873718
			],
			"scale":[
				1,
				0.9999998211860657,
				1.0000001192092896
			],
			"translation":[
				-0.1526769995689392,
				0.4608595669269562,
				0.012056931853294373
			]
		},
		{
			"name":"Indice.R.014",
			"rotation":[
				0.03685634955763817,
				0.0366581454873085,
				-0.054735880345106125,
				0.9971468448638916
			],
			"scale":[
				1,
				0.9999999403953552,
				1
			],
			"translation":[
				-1.4062970876693726e-07,
				0.13991442322731018,
				2.5634653866291046e-07
			]
		},
		{
			"children":[
				34
			],
			"name":"Indice.R.013",
			"rotation":[
				-0.0037043672055006027,
				0.0920259952545166,
				0.234080508351326,
				0.9678449630737305
			],
			"scale":[
				1.0000001192092896,
				1,
				1.0000001192092896
			],
			"translation":[
				2.1257437765598297e-07,
				0.1283266395330429,
				1.273583620786667e-07
			]
		},
		{
			"children":[
				35
			],
			"name":"Indice.R.012",
			"rotation":[
				0.4418998062610626,
				-0.11185892671346664,
				-0.504758894443512,
				0.7330965995788574
			],
			"scale":[
				1,
				1.0000001192092896,
				1
			],
			"translation":[
				0.16608843207359314,
				0.25926440954208374,
				-0.009034700691699982
			]
		},
		{
			"children":[
				24,
				27,
				30,
				33,
				36
			],
			"name":"Bone.006.R",
			"rotation":[
				0.06321486830711365,
				0.008706517517566681,
				-0.0039619873277843,
				0.9979541301727295
			],
			"scale":[
				0.9999998807907104,
				1,
				1
			],
			"translation":[
				-4.842877388000488e-07,
				0.958526611328125,
				-3.725290298461914e-09
			]
		},
		{
			"children":[
				37
			],
			"name":"Bone.005.R",
			"rotation":[
				0.13181862235069275,
				-0.007783555891364813,
				0.03246394544839859,
				0.9907115697860718
			],
			"scale":[
				1,
				1,
				1.0000001192092896
			],
			"translation":[
				2.2351741790771484e-08,
				0.8304467797279358,
				-3.725290298461914e-08
			]
		},
		{
			"children":[
				38
			],
			"name":"Bone.004.R",
			"rotation":[
				-0.025429880246520042,
				-0.0032869826536625624,
				0.13277752697467804,
				0.9908141493797302
			],
			"scale":[
				1,
				1,
				0.9999999403953552
			],
			"translation":[
				-2.2351741790771484e-08,
				1.069295048713684,
				-3.725290298461914e-08
			]
		},
		{
			"children":[
				39
			],
			"name":"Bone.003.R",
			"rotation":[
				-0.07261062413454056,
				-0.037744130939245224,
				0.8332923054695129,
				0.5467422008514404
			],
			"scale":[
				0.9999997019767761,
				0.9999999403953552,
				0.9999999403953552
			],
			"translation":[
				-1.8947446278616553e-08,
				0.9783784747123718,
				7.45057615603173e-09
			]
		},
		{
			"name":"Costilla.L",
			"rotation":[
				0.5656947493553162,
				-0.4288612902164459,
				-0.5407184958457947,
				0.4513215124607086
			],
			"scale":[
				1,
				0.9999998211860657,
				0.9999997615814209
			],
			"translation":[
				0.6334860324859619,
				0.09974649548530579,
				-0.367021769285202
			]
		},
		{
			"name":"Costilla.R",
			"rotation":[
				0.5656945109367371,
				0.42886093258857727,
				0.5407187342643738,
				0.4513217508792877
			],
			"scale":[
				1.0000001192092896,
				1,
				1
			],
			"translation":[
				-0.6334853768348694,
				0.09974650293588638,
				-0.3670220673084259
			]
		},
		{
			"children":[
				19,
				21,
				40,
				41,
				42
			],
			"name":"Bone.002",
			"rotation":[
				-0.09096301347017288,
				-7.246492224636733e-15,
				-2.1687275975068587e-08,
				0.9958542585372925
			],
			"translation":[
				0,
				0.8318902254104614,
				0
			]
		},
		{
			"children":[
				43
			],
			"name":"Bone.001",
			"rotation":[
				-0.15967203676700592,
				1.1767986762833971e-07,
				-1.9034390064121e-08,
				0.9871701598167419
			],
			"scale":[
				1,
				0.9999999403953552,
				0.9999999403953552
			],
			"translation":[
				0,
				0.9662477374076843,
				-3.3527612686157227e-08
			]
		},
		{
			"children":[
				44
			],
			"name":"Bone",
			"rotation":[
				0.12737813591957092,
				0,
				0,
				0.9918542504310608
			],
			"scale":[
				1,
				0.9999999403953552,
				0.9999999403953552
			],
			"translation":[
				-4.5849727570157484e-08,
				-1.858508586883545,
				-0.057332009077072144
			]
		},
		{
			"children":[
				0,
				45
			],
			"name":"Esqueleto",
			"translation":[
				0,
				0.6204879283905029,
				-0.203097403049469
			]
		}
	],
	"meshes":[
		{
			"name":"Cubo.001",
			"primitives":[
				{
					"attributes":{
						"POSITION":0,
						"NORMAL":1,
						"TEXCOORD_0":2
					},
					"indices":3
				}
			]
		}
	],
	"skins":[
		{
			"inverseBindMatrices":4,
			"joints":[
				45,
				44,
				43,
				19,
				18,
				17,
				16,
				3,
				2,
				1,
				6,
				5,
				4,
				9,
				8,
				7,
				12,
				11,
				10,
				15,
				14,
				13,
				21,
				20,
				40,
				39,
				38,
				37,
				24,
				23,
				22,
				27,
				26,
				25,
				30,
				29,
				28,
				33,
				32,
				31,
				36,
				35,
				34,
				41,
				42
			],
			"name":"Esqueleto"
		}
	],
	"accessors":[
		{
			"bufferView":0,
			"componentType":5126,
			"count":2734,
			"max":[
				1.1864824295043945,
				2.5703225135803223,
				1.8994455337524414
			],
			"min":[
				-1.220349907875061,
				-1.379215121269226,
				-0.8154910802841187
			],
			"type":"VEC3"
		},
		{
			"bufferView":1,
			"componentType":5126,
			"count":2734,
			"type":"VEC3"
		},
		{
			"bufferView":2,
			"componentType":5126,
			"count":2734,
			"type":"VEC2"
		},
		{
			"bufferView":3,
			"componentType":5123,
			"count":4104,
			"type":"SCALAR"
		},
		{
			"bufferView":4,
			"componentType":5126,
			"count":45,
			"type":"MAT4"
		}
	],
	"bufferViews":[
		{
			"buffer":0,
			"byteLength":32808,
			"byteOffset":0,
			"target":34962
		},
		{
			"buffer":0,
			"byteLength":32808,
			"byteOffset":32808,
			"target":34962
		},
		{
			"buffer":0,
			"byteLength":21872,
			"byteOffset":65616,
			"target":34962
		},
		{
			"buffer":0,
			"byteLength":8208,
			"byteOffset":87488,
			"target":34963
		},
		{
			"buffer":0,
			"byteLength":2880,
			"byteOffset":95696
		}
	],
	"buffers":[
		{
			"byteLength":98576,
			"uri":"data:application/octet-stream;base64,"
		}
	]
}
